# xmcd CD database file
#
# Track frame offsets:
#	150
#	20702
#	46790
#	66235
#	89160
#	114170
#	133610
#	151597
#	168910
#
# Disc length: 2508 seconds
#
# Revision: 0
# Processed by: cddbd v1.5.1PL0 Copyright (c) Steve Scherf et al.
# Submitted via: CDex 1.51
#
DISCID=6c09ca09
DTITLE=Miles Davis - In Paris Festival International De Jazz-May, 1949
DYEAR=1949
DGENRE=Jazz
TTITLE0=Rifftide
TTITLE1=Good Bait
TTITLE2=Dont Blame Me
TTITLE3=Lady Bird
TTITLE4="Wah" "Hoo"
TTITLE5=Allen's Alley
TTITLE6=Embraceable You
TTITLE7=Ornithology
TTITLE8=All The Things You Are
EXTD=YEAR: 1949
EXTT0=
EXTT1=
EXTT2=
EXTT3=
EXTT4=
EXTT5=
EXTT6=
EXTT7=
EXTT8=
PLAYORDER=
